<?xml version="1.0" ?>
<!DOCTYPE svg  PUBLIC '-//W3C//DTD SVG 1.1//EN'  'http://www.w3.org/Graphics/SVG/1.1/DTD/svg11.dtd'>
<svg enable-background="new 0 0 24 24" height="24px" id="Layer_1" version="1.1" viewBox="0 0 24 24" width="24px" xml:space="preserve" xmlns="http://www.w3.org/2000/svg" xmlns:xlink="http://www.w3.org/1999/xlink">
	<g fill="#FFFFFF">
		<path d="M7.286,15.417c-1.547-0.275-3.072,0.705-4.091,3.146C2.176,21.008,0.354,21.985,0,21.926c1.9,0.688,7.698,2.446,9.138-4.25   C8.526,16.071,7.286,15.417,7.286,15.417z"/>
		<path d="M9.481,12.774c-0.457,0.503-0.57,0.863-1.166,1.809c0.385,0.27,1.127,0.893,1.643,1.966   c1.029-0.589,1.508-0.68,2.053-1.139c3.563-2.999,12.28-13.746,11.981-14.057C23.674,1.024,12.614,9.335,9.481,12.774z"/>
	</g>
</svg>