<?xml version="1.0" encoding="utf-8"?>
<!-- Generator: Adobe Illustrator 19.0.0, SVG Export Plug-In . SVG Version: 6.00 Build 0)  -->
<svg version="1.1" id="Icons" xmlns="http://www.w3.org/2000/svg" xmlns:xlink="http://www.w3.org/1999/xlink" x="0px" y="0px"
	 viewBox="-265 357 80 80" style="enable-background:new -265 357 80 80;" xml:space="preserve">
<path d="M-244.5,391.3h12.7l-4.6-4.6c2.6-2.6,6.2-4.3,10.2-4.3c8,0,14.5,6.5,14.5,14.5s-6.5,14.5-14.5,14.5c-5.4,0-10-2.9-12.5-7.3
	l-4.3,2.5c3.4,5.8,9.7,9.8,16.9,9.8c10.8,0,19.5-8.7,19.5-19.5c0-10.8-8.7-19.5-19.5-19.5c-5.4,0-10.2,2.2-13.8,5.7l-4.6-4.6V391.3
	L-244.5,391.3z"/>
</svg>
