<?xml version="1.0" encoding="utf-8"?>
<!-- Generator: Adobe Illustrator 19.0.0, SVG Export Plug-In . SVG Version: 6.00 Build 0)  -->
<svg version="1.1" id="Layer_0_xA0_Image_1_" xmlns="http://www.w3.org/2000/svg" xmlns:xlink="http://www.w3.org/1999/xlink"
	 x="0px" y="0px" viewBox="0 0 7000 7000" style="enable-background:new 0 0 7000 7000;" xml:space="preserve">
<style type="text/css">
	.st0{display:none;fill:#FFFFFF;stroke:#000000;stroke-width:147.9952;stroke-miterlimit:10;}
	.st1{display:none;fill:none;stroke:#000000;stroke-width:147.9952;stroke-miterlimit:10;}
	.st2{display:none;fill:none;stroke:#000000;stroke-width:156.5544;stroke-miterlimit:10;}
	.st3{display:none;fill:none;stroke:#000000;stroke-width:154.966;stroke-miterlimit:10;}
	.st4{display:none;}
	.st5{display:inline;fill:#6D0000;}
	.st6{display:inline;fill:#B80000;}
	.st7{fill:#754B23;}
	.st8{fill:#512E10;}
</style>
<line class="st0" x1="3471.8" y1="3850.1" x2="6269" y2="2666.9"/>
<line class="st1" x1="688.7" y1="2698.7" x2="3508.8" y2="3850.1"/>
<line class="st2" x1="4643.5" y1="2605.2" x2="3441.4" y2="3920.1"/>
<line class="st3" x1="2346.8" y1="2629.8" x2="3577.4" y2="3893.3"/>
<g class="st4">
	<path class="st5" d="M1574,2418.9c347.6,0,649.7,96.3,803.8,238c221-120.1,645.2-201.3,1132.5-201.3
		c491.1,0,918.3,82.5,1137.8,204.2c153.1-143.2,456.8-240.8,806.7-240.8c355.7,0,663.6,100.9,814.2,248
		C6182.2,1397.1,4976,390.7,3500.6,390.7c-1487.7,0-2701.8,1023.3-2770.4,2308C867,2534.5,1193.2,2418.9,1574,2418.9z"/>
	<path class="st6" d="M1454.4,2057c445.5-84.1,729.3,662.2,900.6,649c171.3-13.2,711.3-769.6,1145.6-769.6
		c428.8,0,986.6,759,1145.6,757.7c159-1.3,435.6-670.6,864.7-593.3c472.3,85.1,892.6,1041.3,925.7,1025
		c33.2-16.3,13.1-101.6,13.1-177.3c0-1471.2-1323.5-2675.7-2949.1-2675.7s-2954,1192.7-2954,2663.9c0,0-10.7,117,14,127.3
		C585.2,3074.5,1015.8,2139.8,1454.4,2057z"/>
</g>
<g>
	<g>
		<path class="st7" d="M4958,4793.6c0,90.4-74,164.4-164.4,164.4H2206.4c-90.4,0-164.4-74-164.4-164.4V2206.4
			c0-90.4,74-164.4,164.4-164.4h2587.2c90.4,0,164.4,74,164.4,164.4V4793.6z"/>
	</g>
	<polygon class="st8" points="2328.2,2677.4 3189,3523.4 2327.3,4368.5 	"/>
	<polygon class="st8" points="2667.7,4626.4 3513.7,3765.6 4358.9,4627.3 	"/>
	<polygon class="st8" points="4671,4368.5 3810.2,3522.5 4671.9,2677.4 	"/>
	<polygon class="st8" points="4358.9,2373.6 3512.8,3234.4 2667.7,2372.7 	"/>
</g>
</svg>
